<svg width="21" height="20" xmlns="http://www.w3.org/2000/svg">
 <mask id="path-1-inside-1_1_421">
  <path id="svg_1" d="m113,1l2,0c1.105,0 2,0.89543 2,2l0,2l-6,0l0,-2c0,-1.10457 0.895,-2 2,-2zm-3,4l0,-2c0,-1.65685 1.343,-3 3,-3l2,0c1.657,0 3,1.34315 3,3l0,2l0.216,0c1.045,0 1.913,0.80364 1.994,1.84491l0.622,7.99999c0.091,1.1622 -0.828,2.1551 -1.994,2.1551l-9.676,0c-1.166,0 -2.085,-0.9929 -1.994,-2.1551l0.622,-7.99999c0.081,-1.04127 0.949,-1.84491 1.994,-1.84491l0.216,0zm8,1l-8,0l-0.216,0c-0.522,0 -0.957,0.40182 -0.997,0.92245l-0.622,8.00005c-0.046,0.581 0.414,1.0775 0.997,1.0775l9.676,0c0.583,0 1.043,-0.4965 0.997,-1.0775l-0.622,-8.00004c-0.04,-0.52064 -0.475,-0.92246 -0.997,-0.92246l-0.216,0z" clip-rule="evenodd" fill-rule="evenodd"/>
 </mask>

 <mask id="path-4-inside-2_1_421">
  <path id="svg_2" d="m9,5c0,1.65685 -1.34315,3 -3,3c-1.65685,0 -3,-1.34315 -3,-3c0,-1.65685 1.34315,-3 3,-3c1.65685,0 3,1.34315 3,3zm1,0c0,2.20914 -1.79086,4 -4,4c-2.20914,0 -4,-1.79086 -4,-4c0,-2.20914 1.79086,-4 4,-4c2.20914,0 4,1.79086 4,4zm-9,9c0,-1.6569 1.34315,-3 3,-3l4,0c1.65685,0 3,1.3431 3,3l0,1l-10,0l0,-1zm-1,0c0,-2.2091 1.79086,-4 4,-4l4,0c2.2091,0 4,1.7909 4,4l0,2l-12,0l0,-2z" clip-rule="evenodd" fill-rule="evenodd"/>
 </mask>
 <g>
  <title>background</title>
  <rect fill="#ffffff" id="canvas_background" height="22" width="23" y="-1" x="-1"/>
 </g>
 <g>
  <title>Layer 1</title>
  <path stroke-width="10" id="svg_3" fill="#1C2A39" d="m9.5,2.5l2,0c1.105,0 2,0.89543 2,2l0,2l-6,0l0,-2c0,-1.10457 0.895,-2 2,-2zm-3,4l0,-2c0,-1.65685 1.343,-3 3,-3l2,0c1.657,0 3,1.34315 3,3l0,2l0.216,0c1.045,0 1.913,0.80364 1.994,1.84491l0.622,7.99999c0.091,1.1622 -0.828,2.1551 -1.994,2.1551l-9.676,0c-1.166,0 -2.085,-0.9929 -1.994,-2.1551l0.622,-7.99999c0.081,-1.04127 0.949,-1.84491 1.994,-1.84491l0.216,0zm8,1l-8,0l-0.216,0c-0.522,0 -0.957,0.40182 -0.997,0.92245l-0.622,8.00005c-0.046,0.581 0.414,1.0775 0.997,1.0775l9.676,0c0.583,0 1.043,-0.4965 0.997,-1.0775l-0.622,-8.00004c-0.04,-0.52064 -0.475,-0.92246 -0.997,-0.92246l-0.216,0z" clip-rule="evenodd" fill-rule="evenodd"/>
  <path stroke-width="0" id="svg_4" mask="url(#path-1-inside-1_1_421)" fill="#1C2A39" d="m12.83827,5l0,1l1,0l0,-1l-1,0zm-6,0l-1,0l0,1l1,0l0,-1zm-1,0l0,1l1,0l0,-1l-1,0zm8,0l-1,0l0,1l1,0l0,-1zm2.21,1.84491l0.997,-0.07754l-0.997,0.07754zm0.622,7.99999l-0.997,0.0776l0.997,-0.0776zm-13.664,0l-0.997,-0.0775l0,0l0.997,0.0775zm0.622,-7.99999l-0.997,-0.07754l0.997,0.07754zm0.997,0.07754l-0.997,-0.07754l0.997,0.07754zm-0.622,8.00005l-0.997,-0.0776l0,0l0.997,0.0776zm11.67,0l-0.997,0.0775l0,0l0.997,-0.0775zm-0.622,-8.00004l-0.997,0.07754l0.997,-0.07754zm-4.213,-6.92246l-2,0l0,2l2,0l0,-2zm3,3c0,-1.65685 -1.343,-3 -3,-3l0,2c0.552,0 1,0.44772 1,1l2,0zm0,2l0,-2l-2,0l0,2l2,0zm-1,-1l-6,0l0,2l6,0l0,-2zm-7,-1l0,2l2,0l0,-2l-2,0zm3,-3c-1.657,0 -3,1.34315 -3,3l2,0c0,-0.55228 0.448,-1 1,-1l0,-2zm-4,3l0,2l2,0l0,-2l-2,0zm4,-4c-2.209,0 -4,1.79086 -4,4l2,0c0,-1.10457 0.895,-2 2,-2l0,-2zm2,0l-2,0l0,2l2,0l0,-2zm4,4c0,-2.20914 -1.791,-4 -4,-4l0,2c1.105,0 2,0.89543 2,2l2,0zm0,2l0,-2l-2,0l0,2l2,0zm-0.784,-1l-0.216,0l0,2l0.216,0l0,-2zm2.991,2.76737c-0.121,-1.56191 -1.424,-2.76737 -2.991,-2.76737l0,2c0.522,0 0.957,0.40182 0.997,0.92246l1.994,-0.15509zm0.622,8.00003l-0.622,-8.00003l-1.994,0.15509l0.622,8.00004l1.994,-0.1551zm-2.991,3.2326c1.749,0 3.127,-1.4894 2.991,-3.2326l-1.994,0.1551c0.046,0.581 -0.414,1.0775 -0.997,1.0775l0,2zm-9.676,0l9.676,0l0,-2l-9.676,0l0,2zm-2.991,-3.2326c-0.136,1.7432 1.242,3.2326 2.991,3.2326l0,-2c-0.583,0 -1.043,-0.4965 -0.997,-1.0775l-1.994,-0.1551zm0.622,-8.00003l-0.622,8.00003l1.994,0.1551l0.622,-8.00005l-1.994,-0.15508zm2.991,-2.76737c-1.567,0 -2.87,1.20545 -2.991,2.76737l1.994,0.15508c0.04,-0.52063 0.475,-0.92245 0.997,-0.92245l0,-2zm0.216,0l-0.216,0l0,2l0.216,0l0,-2zm8,1l-8,0l0,2l8,0l0,-2zm-8,0l-0.216,0l0,2l0.216,0l0,-2zm-0.216,0c-1.045,0 -1.913,0.80364 -1.994,1.84491l1.994,0.15509l0,0l0,-2zm-1.994,1.84491l-0.622,7.99999l1.994,0.1551l0.622,-8l-1.994,-0.15509zm-0.622,7.99999c-0.091,1.1622 0.828,2.1551 1.994,2.1551l0,-2l0,0l-1.994,-0.1551zm1.994,2.1551l9.676,0l0,-2l-9.676,0l0,2zm9.676,0c1.166,0 2.085,-0.9929 1.994,-2.1551l-1.994,0.1551l0,0l0,2zm1.994,-2.1551l-0.622,-7.99999l-1.994,0.15509l0.622,8l1.994,-0.1551zm-0.622,-7.99999c-0.081,-1.04127 -0.949,-1.84491 -1.994,-1.84491l0,2l0,0l1.994,-0.15509zm-1.994,-1.84491l-0.216,0l0,2l0.216,0l0,-2z"/>
 </g>
</svg>