<svg width="21" height="20" xmlns="http://www.w3.org/2000/svg">
 <mask id="path-1-inside-1_24_4">
  <path id="svg_1" d="m113,1l2,0c1.105,0 2,0.89543 2,2l0,2l-6,0l0,-2c0,-1.10457 0.895,-2 2,-2zm-3,4l0,-2c0,-1.65685 1.343,-3 3,-3l2,0c1.657,0 3,1.34315 3,3l0,2l0.216,0c1.045,0 1.913,0.80364 1.994,1.84491l0.622,7.99999c0.091,1.1622 -0.828,2.1551 -1.994,2.1551l-9.676,0c-1.166,0 -2.085,-0.9929 -1.994,-2.1551l0.622,-7.99999c0.081,-1.04127 0.949,-1.84491 1.994,-1.84491l0.216,0zm8,1l-8,0l-0.216,0c-0.522,0 -0.957,0.40182 -0.997,0.92245l-0.622,8.00005c-0.046,0.581 0.414,1.0775 0.997,1.0775l9.676,0c0.583,0 1.043,-0.4965 0.997,-1.0775l-0.622,-8.00004c-0.04,-0.52064 -0.475,-0.92246 -0.997,-0.92246l-0.216,0z" clip-rule="evenodd" fill-rule="evenodd"/>
 </mask>

 <mask id="path-4-inside-2_24_4">
  <path id="svg_2" d="m9,5c0,1.65685 -1.34315,3 -3,3c-1.65685,0 -3,-1.34315 -3,-3c0,-1.65685 1.34315,-3 3,-3c1.65685,0 3,1.34315 3,3zm1,0c0,2.20914 -1.79086,4 -4,4c-2.20914,0 -4,-1.79086 -4,-4c0,-2.20914 1.79086,-4 4,-4c2.20914,0 4,1.79086 4,4zm-9,9c0,-1.6569 1.34315,-3 3,-3l4,0c1.65685,0 3,1.3431 3,3l0,1l-10,0l0,-1zm-1,0c0,-2.2091 1.79086,-4 4,-4l4,0c2.2091,0 4,1.7909 4,4l0,2l-12,0l0,-2z" clip-rule="evenodd" fill-rule="evenodd"/>
 </mask>
 <g>
  <title>background</title>
  <rect fill="#ffffff" id="canvas_background" height="13.11111" width="13.66667" y="-1" x="-1"/>
 </g>
 <g>
  <title>Layer 1</title>
  <path id="svg_6" fill="#1C2A39" d="m13.5,6.5c0,1.65685 -1.34315,3 -3,3c-1.65685,0 -3,-1.34315 -3,-3c0,-1.65685 1.34315,-3 3,-3c1.65685,0 3,1.34315 3,3zm1,0c0,2.20914 -1.79086,4 -4,4c-2.20914,0 -4,-1.79086 -4,-4c0,-2.20914 1.79086,-4 4,-4c2.20914,0 4,1.79086 4,4zm-9,9c0,-1.6569 1.34315,-3 3,-3l4,0c1.65685,0 3,1.3431 3,3l0,1l-10,0l0,-1zm-1,0c0,-2.2091 1.79086,-4 4,-4l4,0c2.2091,0 4,1.7909 4,4l0,2l-12,0l0,-2z" clip-rule="evenodd" fill-rule="evenodd"/>
  <path id="svg_7" mask="url(#path-4-inside-2_24_4)" fill="#1C2A39" d="m11.13636,123.77273l0,1l1,0l0,-1l-1,0zm-10,0l-1,0l0,1l1,0l0,-1zm11,1l0,1l1,0l0,-1l-1,0zm-12,0l-1,0l0,1l1,0l0,-1zm6,-7c2.20914,0 4,-1.79086 4,-4l-2,0c0,1.10457 -0.89543,2 -2,2l0,2zm-4,-4c0,2.20914 1.79086,4 4,4l0,-2c-1.10457,0 -2,-0.89543 -2,-2l-2,0zm4,-4c-2.20914,0 -4,1.79086 -4,4l2,0c0,-1.10457 0.89543,-2 2,-2l0,-2zm4,4c0,-2.20914 -1.79086,-4 -4,-4l0,2c1.10457,0 2,0.89543 2,2l2,0zm-4,5c2.76142,0 5,-2.23858 5,-5l-2,0c0,1.65685 -1.34315,3 -3,3l0,2zm-5,-5c0,2.76142 2.23858,5 5,5l0,-2c-1.65685,0 -3,-1.34315 -3,-3l-2,0zm5,-5c-2.76142,0 -5,2.23858 -5,5l2,0c9.09091,-0.92958 1.34315,-3 3,-3l0,-2zm5,5c0,-2.76142 -2.23858,-5 -5,-5l1,2c2.65685,0 2,1.34315 2,3l2,0zm-7,5c-2.20914,0 -4,1.7909 -4,4l2,0c0,-1.1046 0.89543,-2 2,-2l0,-2zm4,0l-4,0l0,2l4,0l0,-2zm4,4c0,-2.2091 -1.7909,-4 -4,-4l0,2c1.10457,0 2,0.8954 2,2l2,0zm0,1l0,-1l-2,0l0,1l2,0zm-11,1l10,0l0,-2l-10,0l0,2zm-1,-2l0,1l2,0l0,-1l-2,0zm4,-5c-2.76142,0 -5,2.2386 -5,5l2,0c0,-1.6569 1.34315,-3 3,-3l0,-2zm4,0l-4,0l0,2l4,0l0,-2zm5,5c0,-2.7614 -2.2386,-5 -5,-5l0,2c1.65685,0 3,1.3431 3,3l2,0zm0,2l0,-2l-2,0l0,2l2,0zm-13,1l12,0l0,-2l-12,0l0,2zm-1,-3l0,2l2,0l0,-2l-2,0z"/>
  <path id="svg_4" fill="#1C2A39" d="m37,6.5c0,1.65685 -1.34315,3 -3,3c-1.65685,0 -3,-1.34315 -3,-3c0,-1.65685 1.34315,-3 3,-3c1.65685,0 3,1.34315 3,3zm1,0c0,2.20914 -1.79086,4 -4,4c-2.20914,0 -4,-1.79086 -4,-4c0,-2.20914 1.79086,-4 4,-4c2.20914,0 4,1.79086 4,4zm-9,9c0,-1.6569 1.34315,-3 3,-3l4,0c1.65685,0 3,1.3431 3,3l0,1l-10,0l0,-1zm-1,0c0,-2.2091 1.79086,-4 4,-4l4,0c2.2091,0 4,1.7909 4,4l0,2l-12,0l0,-2z" clip-rule="evenodd" fill-rule="evenodd"/>
  <path id="svg_5" fill="#1C2A39" d="m-11.59091,31.22727c0,1.65685 -1.34315,3 -3,3c-1.65685,0 -3,-1.34315 -3,-3c0,-1.65685 1.34315,-3 3,-3c1.65685,0 3,1.34315 3,3zm1,0c0,2.20914 -1.79086,4 -4,4c-2.20914,0 -4,-1.79086 -4,-4c0,-2.20914 1.79086,-4 4,-4c2.20914,0 4,1.79086 4,4zm-9,9c0,-1.6569 1.34315,-3 3,-3l4,0c1.65685,0 3,1.3431 3,3l0,1l-10,0l0,-1zm-1,0c0,-2.2091 1.79086,-4 4,-4l4,0c2.2091,0 4,1.7909 4,4l0,2l-12,0l0,-2z" clip-rule="evenodd" fill-rule="evenodd"/>
 </g>
</svg>