<svg width="20" height="21" xmlns="http://www.w3.org/2000/svg">
 <mask id="path-1-inside-1_24_4">
  <path fill-rule="evenodd" clip-rule="evenodd" d="m113,1l2,0c1.105,0 2,0.89543 2,2l0,2l-6,0l0,-2c0,-1.10457 0.895,-2 2,-2zm-3,4l0,-2c0,-1.65685 1.343,-3 3,-3l2,0c1.657,0 3,1.34315 3,3l0,2l0.216,0c1.045,0 1.913,0.80364 1.994,1.84491l0.622,7.99999c0.091,1.1622 -0.828,2.1551 -1.994,2.1551l-9.676,0c-1.166,0 -2.085,-0.9929 -1.994,-2.1551l0.622,-7.99999c0.081,-1.04127 0.949,-1.84491 1.994,-1.84491l0.216,0zm8,1l-8,0l-0.216,0c-0.522,0 -0.957,0.40182 -0.997,0.92245l-0.622,8.00005c-0.046,0.581 0.414,1.0775 0.997,1.0775l9.676,0c0.583,0 1.043,-0.4965 0.997,-1.0775l-0.622,-8.00004c-0.04,-0.52064 -0.475,-0.92246 -0.997,-0.92246l-0.216,0z" id="svg_1"/>
 </mask>

 <mask id="path-4-inside-2_24_4">
  <path fill-rule="evenodd" clip-rule="evenodd" d="m9,5c0,1.65685 -1.34315,3 -3,3c-1.65685,0 -3,-1.34315 -3,-3c0,-1.65685 1.34315,-3 3,-3c1.65685,0 3,1.34315 3,3zm1,0c0,2.20914 -1.79086,4 -4,4c-2.20914,0 -4,-1.79086 -4,-4c0,-2.20914 1.79086,-4 4,-4c2.20914,0 4,1.79086 4,4zm-9,9c0,-1.6569 1.34315,-3 3,-3l4,0c1.65685,0 3,1.3431 3,3l0,1l-10,0l0,-1zm-1,0c0,-2.2091 1.79086,-4 4,-4l4,0c2.2091,0 4,1.7909 4,4l0,2l-12,0l0,-2z" id="svg_2"/>
 </mask>
 <g>
  <title>background</title>
  <rect x="-1" y="-1" width="11.7561" height="12.2439" id="canvas_background" fill="none"/>
 </g>
 <g>
  <title>Layer 1</title>
  <path fill-rule="evenodd" clip-rule="evenodd" d="m14.5,9.6465c0,3.0376 -2.4624,5.5 -5.5,5.5c-3.0376,0 -5.5,-2.4624 -5.5,-5.5c0,-3.03757 2.4624,-5.5 5.5,-5.5c3.0376,0 5.5,2.46243 5.5,5.5zm-1.1155,4.7986c-1.1559,1.0568 -2.6949,1.7014 -4.3845,1.7014c-3.5899,0 -6.5,-2.9101 -6.5,-6.5c0,-3.58985 2.9101,-6.5 6.5,-6.5c3.5899,0 6.5,2.91015 6.5,6.5c0,1.54017 -0.5357,2.9552 -1.4309,4.069l3.4309,3.4309l-0.7071,0.7071l-3.4084,-3.4084z" fill="#1C2A39" id="svg_5"/>
 </g>
</svg>